<svg width="312" height="157" viewBox="0 0 312 157" fill="none" xmlns="http://www.w3.org/2000/svg">
<g opacity="0.5">
<path d="M188 47.5V31.6667H132C129.878 31.6667 127.843 30.8326 126.343 29.3479C124.843 27.8633 124 25.8496 124 23.75C124 19.3958 127.6 15.8333 132 15.8333H180V31.6667" stroke="white" stroke-width="2" stroke-linecap="round" stroke-linejoin="round"/>
<path d="M124 23.75V71.25C124 75.6042 127.6 79.1667 132 79.1667H188V63.3333" stroke="white" stroke-width="2" stroke-linecap="round" stroke-linejoin="round"/>
<path d="M180 47.5C177.878 47.5 175.843 48.3341 174.343 49.8187C172.843 51.3034 172 53.317 172 55.4167C172 59.7708 175.6 63.3333 180 63.3333H196V47.5H180Z" stroke="white" stroke-width="2" stroke-linecap="round" stroke-linejoin="round"/>
<rect x="59" y="111" width="194" height="46" rx="23" fill="#313131"/>
<path d="M85.16 142V124.48H88.568V142H85.16ZM88.088 142V139H95.648V142H88.088ZM98.7856 142V128.968H102.122V142H98.7856ZM96.9616 131.464V128.968H102.122V131.464H96.9616ZM100.01 127.408C99.3536 127.408 98.8656 127.24 98.5456 126.904C98.2416 126.552 98.0896 126.12 98.0896 125.608C98.0896 125.064 98.2416 124.624 98.5456 124.288C98.8656 123.952 99.3536 123.784 100.01 123.784C100.666 123.784 101.146 123.952 101.45 124.288C101.754 124.624 101.906 125.064 101.906 125.608C101.906 126.12 101.754 126.552 101.45 126.904C101.146 127.24 100.666 127.408 100.01 127.408ZM110.694 142.408C108.902 142.408 107.494 142.032 106.47 141.28C105.462 140.512 104.934 139.456 104.886 138.112H107.886C107.934 138.56 108.182 138.968 108.63 139.336C109.078 139.704 109.782 139.888 110.742 139.888C111.542 139.888 112.174 139.744 112.638 139.456C113.118 139.168 113.358 138.776 113.358 138.28C113.358 137.848 113.174 137.504 112.806 137.248C112.454 136.992 111.846 136.824 110.982 136.744L109.83 136.624C108.374 136.464 107.254 136.048 106.47 135.376C105.686 134.704 105.294 133.808 105.294 132.688C105.294 131.792 105.518 131.04 105.966 130.432C106.414 129.824 107.03 129.368 107.814 129.064C108.614 128.744 109.526 128.584 110.55 128.584C112.15 128.584 113.446 128.936 114.438 129.64C115.43 130.344 115.95 131.376 115.998 132.736H112.998C112.966 132.288 112.742 131.904 112.326 131.584C111.91 131.264 111.31 131.104 110.526 131.104C109.822 131.104 109.278 131.24 108.894 131.512C108.51 131.784 108.318 132.136 108.318 132.568C108.318 132.984 108.47 133.304 108.774 133.528C109.094 133.752 109.606 133.904 110.31 133.984L111.462 134.104C112.998 134.264 114.198 134.688 115.062 135.376C115.942 136.064 116.382 136.992 116.382 138.16C116.382 139.024 116.142 139.776 115.662 140.416C115.198 141.04 114.542 141.528 113.694 141.88C112.846 142.232 111.846 142.408 110.694 142.408ZM124.802 142.168C123.602 142.168 122.61 142.016 121.826 141.712C121.058 141.392 120.482 140.864 120.098 140.128C119.714 139.376 119.522 138.368 119.522 137.104L119.546 125.296H122.666L122.642 137.32C122.642 137.96 122.81 138.456 123.146 138.808C123.498 139.144 123.994 139.312 124.634 139.312H126.674V142.168H124.802ZM117.458 131.416V128.968H126.674V131.416H117.458ZM129.474 142V128.968H132.114V134.488H132.042C132.042 132.616 132.442 131.2 133.242 130.24C134.042 129.28 135.218 128.8 136.77 128.8H137.25V131.704H136.338C135.218 131.704 134.346 132.008 133.722 132.616C133.114 133.208 132.81 134.072 132.81 135.208V142H129.474ZM147.308 142V138.136H146.756V133.84C146.756 133.088 146.572 132.528 146.204 132.16C145.836 131.792 145.268 131.608 144.5 131.608C144.1 131.608 143.62 131.616 143.06 131.632C142.5 131.648 141.932 131.672 141.356 131.704C140.796 131.72 140.292 131.744 139.844 131.776V128.944C140.212 128.912 140.628 128.88 141.092 128.848C141.556 128.816 142.028 128.8 142.508 128.8C143.004 128.784 143.468 128.776 143.9 128.776C145.244 128.776 146.356 128.952 147.236 129.304C148.132 129.656 148.804 130.208 149.252 130.96C149.716 131.712 149.948 132.696 149.948 133.912V142H147.308ZM143.108 142.336C142.164 142.336 141.332 142.168 140.612 141.832C139.908 141.496 139.356 141.016 138.956 140.392C138.572 139.768 138.38 139.016 138.38 138.136C138.38 137.176 138.612 136.392 139.076 135.784C139.556 135.176 140.22 134.72 141.068 134.416C141.932 134.112 142.94 133.96 144.092 133.96H147.116V135.952H144.044C143.276 135.952 142.684 136.144 142.268 136.528C141.868 136.896 141.668 137.376 141.668 137.968C141.668 138.56 141.868 139.04 142.268 139.408C142.684 139.776 143.276 139.96 144.044 139.96C144.508 139.96 144.932 139.88 145.316 139.72C145.716 139.544 146.044 139.256 146.3 138.856C146.572 138.44 146.724 137.88 146.756 137.176L147.572 138.112C147.492 139.024 147.268 139.792 146.9 140.416C146.548 141.04 146.052 141.52 145.412 141.856C144.788 142.176 144.02 142.336 143.108 142.336ZM166.861 142.456C165.277 142.456 163.917 142.176 162.781 141.616C161.645 141.056 160.717 140.328 159.997 139.432C159.293 138.536 158.773 137.56 158.437 136.504C158.101 135.448 157.933 134.432 157.933 133.456V132.928C157.933 131.84 158.101 130.768 158.437 129.712C158.789 128.656 159.325 127.696 160.045 126.832C160.765 125.968 161.677 125.28 162.781 124.768C163.901 124.24 165.221 123.976 166.741 123.976C168.325 123.976 169.701 124.264 170.869 124.84C172.053 125.4 172.997 126.2 173.701 127.24C174.405 128.264 174.829 129.464 174.973 130.84H171.541C171.413 130.04 171.125 129.368 170.677 128.824C170.245 128.264 169.693 127.848 169.021 127.576C168.349 127.288 167.589 127.144 166.741 127.144C165.877 127.144 165.109 127.296 164.437 127.6C163.765 127.888 163.205 128.304 162.757 128.848C162.309 129.392 161.965 130.032 161.725 130.768C161.501 131.504 161.389 132.32 161.389 133.216C161.389 134.08 161.501 134.88 161.725 135.616C161.965 136.352 162.317 137 162.781 137.56C163.245 138.104 163.813 138.528 164.485 138.832C165.173 139.136 165.965 139.288 166.861 139.288C168.173 139.288 169.277 138.968 170.173 138.328C171.085 137.672 171.637 136.76 171.829 135.592H175.261C175.101 136.84 174.677 137.984 173.989 139.024C173.301 140.064 172.357 140.896 171.157 141.52C169.957 142.144 168.525 142.456 166.861 142.456ZM184.137 142.456C182.985 142.456 181.969 142.272 181.089 141.904C180.209 141.536 179.465 141.04 178.857 140.416C178.249 139.776 177.785 139.056 177.465 138.256C177.161 137.456 177.009 136.624 177.009 135.76V135.256C177.009 134.36 177.169 133.512 177.489 132.712C177.825 131.896 178.297 131.176 178.905 130.552C179.529 129.912 180.281 129.416 181.161 129.064C182.041 128.696 183.033 128.512 184.137 128.512C185.241 128.512 186.233 128.696 187.113 129.064C187.993 129.416 188.737 129.912 189.345 130.552C189.969 131.176 190.441 131.896 190.761 132.712C191.081 133.512 191.241 134.36 191.241 135.256V135.76C191.241 136.624 191.081 137.456 190.761 138.256C190.457 139.056 190.001 139.776 189.393 140.416C188.785 141.04 188.041 141.536 187.161 141.904C186.281 142.272 185.273 142.456 184.137 142.456ZM184.137 139.6C184.953 139.6 185.641 139.424 186.201 139.072C186.761 138.704 187.185 138.216 187.473 137.608C187.761 136.984 187.905 136.28 187.905 135.496C187.905 134.696 187.753 133.992 187.449 133.384C187.161 132.76 186.729 132.272 186.153 131.92C185.593 131.552 184.921 131.368 184.137 131.368C183.353 131.368 182.673 131.552 182.097 131.92C181.537 132.272 181.105 132.76 180.801 133.384C180.497 133.992 180.345 134.696 180.345 135.496C180.345 136.28 180.489 136.984 180.777 137.608C181.081 138.216 181.513 138.704 182.073 139.072C182.633 139.424 183.321 139.6 184.137 139.6ZM194.786 142V128.968H198.122V142H194.786ZM192.962 131.464V128.968H198.122V131.464H192.962ZM196.01 127.408C195.354 127.408 194.866 127.24 194.546 126.904C194.242 126.552 194.09 126.12 194.09 125.608C194.09 125.064 194.242 124.624 194.546 124.288C194.866 123.952 195.354 123.784 196.01 123.784C196.666 123.784 197.146 123.952 197.45 124.288C197.754 124.624 197.906 125.064 197.906 125.608C197.906 126.12 197.754 126.552 197.45 126.904C197.146 127.24 196.666 127.408 196.01 127.408ZM201.966 142V128.968H204.606V134.56H204.366C204.366 133.232 204.542 132.128 204.894 131.248C205.246 130.352 205.766 129.68 206.454 129.232C207.158 128.784 208.03 128.56 209.07 128.56H209.214C210.766 128.56 211.942 129.064 212.742 130.072C213.542 131.064 213.942 132.552 213.942 134.536V142H210.606V134.248C210.606 133.448 210.374 132.8 209.91 132.304C209.462 131.808 208.838 131.56 208.038 131.56C207.222 131.56 206.558 131.816 206.046 132.328C205.55 132.824 205.302 133.496 205.302 134.344V142H201.966ZM222.257 142.408C220.465 142.408 219.057 142.032 218.033 141.28C217.025 140.512 216.497 139.456 216.449 138.112H219.449C219.497 138.56 219.745 138.968 220.193 139.336C220.641 139.704 221.345 139.888 222.305 139.888C223.105 139.888 223.737 139.744 224.201 139.456C224.681 139.168 224.921 138.776 224.921 138.28C224.921 137.848 224.737 137.504 224.369 137.248C224.017 136.992 223.409 136.824 222.545 136.744L221.393 136.624C219.937 136.464 218.817 136.048 218.033 135.376C217.249 134.704 216.857 133.808 216.857 132.688C216.857 131.792 217.081 131.04 217.529 130.432C217.977 129.824 218.593 129.368 219.377 129.064C220.177 128.744 221.089 128.584 222.113 128.584C223.713 128.584 225.009 128.936 226.001 129.64C226.993 130.344 227.513 131.376 227.561 132.736H224.561C224.529 132.288 224.305 131.904 223.889 131.584C223.473 131.264 222.873 131.104 222.089 131.104C221.385 131.104 220.841 131.24 220.457 131.512C220.073 131.784 219.881 132.136 219.881 132.568C219.881 132.984 220.033 133.304 220.337 133.528C220.657 133.752 221.169 133.904 221.873 133.984L223.025 134.104C224.561 134.264 225.761 134.688 226.625 135.376C227.505 136.064 227.945 136.992 227.945 138.16C227.945 139.024 227.705 139.776 227.225 140.416C226.761 141.04 226.105 141.528 225.257 141.88C224.409 142.232 223.409 142.408 222.257 142.408Z" fill="white"/>
</g>
</svg>
