<svg width="64" height="64" viewBox="0 0 32 32" fill="none" xmlns="http://www.w3.org/2000/svg">
<g filter="url(#filter0_d_3911_493)">
<circle cx="16" cy="12" r="12" fill="white"/>
</g>
<path d="M13.8966 8.96783L13.8967 8.96774L14.5544 8.31165L14.5545 8.31155L13.8966 8.96783ZM13.8966 8.96783C13.4698 9.39479 12.8909 9.63481 12.2872 9.63514L13.8966 8.96783ZM19.9396 9.04264H19.9395C19.4927 9.04255 19.0642 8.86496 18.7483 8.54895C18.7483 8.54895 18.7483 8.54894 18.7483 8.54894L18.0921 7.89276L18.0921 7.89275C17.8137 7.61425 17.436 7.45774 17.0422 7.45765L19.9396 9.04264ZM19.9396 9.04264H20.8684C21.2622 9.04264 21.6399 9.1991 21.9184 9.47759C22.1969 9.75608 22.3534 10.1338 22.3534 10.5276V15.2826C22.3534 15.6764 22.1969 16.0542 21.9184 16.3327C21.6399 16.6111 21.2622 16.7676 20.8684 16.7676H11.3584C10.9646 16.7676 10.5869 16.6111 10.3084 16.3327C10.0299 16.0542 9.87344 15.6764 9.87344 15.2826V10.5276C9.87344 10.1338 10.0299 9.75608 10.3084 9.47759C10.5869 9.1991 10.9646 9.04264 11.3584 9.04264H12.2872H12.2873C12.7341 9.04255 13.1626 8.86496 13.4785 8.54895C13.4785 8.54895 13.4785 8.54894 13.4785 8.54894L14.1347 7.89276L14.1347 7.89275M19.9396 9.04264L14.1347 7.89275M14.1347 7.89275C14.4131 7.61425 14.7908 7.45774 15.1846 7.45765C15.1846 7.45765 15.1846 7.45765 15.1846 7.45765M14.1347 7.89275L15.1846 7.45765M15.1846 7.45765H17.0422H15.1846Z" fill="#232323" stroke="white" stroke-width="0.2"/>
<path d="M14.6427 13.9805C15.033 14.3708 15.5624 14.59 16.1143 14.59C16.6663 14.59 17.1957 14.3708 17.586 13.9805C17.9763 13.5902 18.1956 13.0608 18.1956 12.5088C18.1956 11.9568 17.9763 11.4275 17.586 11.0372C17.1957 10.6468 16.6663 10.4276 16.1143 10.4276C15.5624 10.4276 15.033 10.6468 14.6427 11.0372C14.2524 11.4275 14.0331 11.9568 14.0331 12.5088C14.0331 13.0608 14.2524 13.5902 14.6427 13.9805ZM18.005 14.3994C17.5035 14.9008 16.8235 15.1825 16.1143 15.1825C15.4052 15.1825 14.7252 14.9008 14.2237 14.3994C13.7223 13.898 13.4406 13.2179 13.4406 12.5088C13.4406 11.7997 13.7223 11.1196 14.2237 10.6182C14.7252 10.1168 15.4052 9.83508 16.1143 9.83508C16.8235 9.83508 17.5035 10.1168 18.005 10.6182C18.5064 11.1196 18.7881 11.7997 18.7881 12.5088C18.7881 13.2179 18.5064 13.898 18.005 14.3994ZM12.0519 10.9238C12.0519 11.0024 12.0207 11.0777 11.9651 11.1333C11.9095 11.1889 11.8342 11.2201 11.7556 11.2201C11.6771 11.2201 11.6017 11.1889 11.5461 11.1333C11.4906 11.0777 11.4594 11.0024 11.4594 10.9238C11.4594 10.8453 11.4906 10.7699 11.5461 10.7143C11.6017 10.6588 11.6771 10.6276 11.7556 10.6276C11.8342 10.6276 11.9095 10.6588 11.9651 10.7143C12.0207 10.7699 12.0519 10.8453 12.0519 10.9238Z" fill="#232323" stroke="white" stroke-width="0.2"/>
<defs>
<filter id="filter0_d_3911_493" x="0" y="0" width="32" height="32" filterUnits="userSpaceOnUse" color-interpolation-filters="sRGB">
<feFlood flood-opacity="0" result="BackgroundImageFix"/>
<feColorMatrix in="SourceAlpha" type="matrix" values="0 0 0 0 0 0 0 0 0 0 0 0 0 0 0 0 0 0 127 0" result="hardAlpha"/>
<feOffset dy="4"/>
<feGaussianBlur stdDeviation="2"/>
<feComposite in2="hardAlpha" operator="out"/>
<feColorMatrix type="matrix" values="0 0 0 0 0 0 0 0 0 0 0 0 0 0 0 0 0 0 0.25 0"/>
<feBlend mode="normal" in2="BackgroundImageFix" result="effect1_dropShadow_3911_493"/>
<feBlend mode="normal" in="SourceGraphic" in2="effect1_dropShadow_3911_493" result="shape"/>
</filter>
</defs>
</svg>
