<svg width="14" height="10" viewBox="0 0 14 10" fill="none" xmlns="http://www.w3.org/2000/svg">
<path d="M4.63195 1.85518L4.63205 1.85508L5.28972 1.19899L5.28982 1.1989L4.63195 1.85518ZM4.63195 1.85518C4.20513 2.28213 3.62624 2.52215 3.02253 2.52248L4.63195 1.85518ZM10.6749 1.92999H10.6749C10.2281 1.92989 9.79954 1.75231 9.48362 1.43629C9.48362 1.43629 9.48361 1.43629 9.48361 1.43628L8.82743 0.780108L8.82742 0.780097C8.549 0.501593 8.17136 0.345085 7.77756 0.344995L10.6749 1.92999ZM10.6749 1.92999H11.6037C11.9976 1.92999 12.3753 2.08644 12.6538 2.36493C12.9323 2.64342 13.0887 3.02113 13.0887 3.41498V8.16995C13.0887 8.56379 12.9323 8.94151 12.6538 9.22C12.3753 9.49849 11.9976 9.65494 11.6037 9.65494H2.09378C1.69994 9.65494 1.32222 9.49849 1.04373 9.22C0.765243 8.94151 0.608789 8.56379 0.608789 8.16995V3.41498C0.608789 3.02113 0.765243 2.64342 1.04373 2.36493C1.32222 2.08644 1.69994 1.92999 2.09378 1.92999H3.02258H3.02261C3.46945 1.92989 3.89796 1.75231 4.21388 1.43629C4.21389 1.43629 4.21389 1.43629 4.21389 1.43628L4.87007 0.780108L4.87008 0.780097M10.6749 1.92999L4.87008 0.780097M4.87008 0.780097C5.1485 0.501593 5.52614 0.345085 5.91995 0.344995C5.91995 0.344995 5.91996 0.344995 5.91997 0.344995M4.87008 0.780097L5.91997 0.344995M5.91997 0.344995H7.77753H5.91997Z" fill="#232323" stroke="#7B22D3" stroke-width="0.2"/>
<path d="M5.37804 6.86783C5.76835 7.25814 6.29772 7.47741 6.8497 7.47741C7.40168 7.47741 7.93105 7.25814 8.32136 6.86783C8.71166 6.47752 8.93094 5.94815 8.93094 5.39617C8.93094 4.84419 8.71166 4.31482 8.32136 3.92451C7.93105 3.5342 7.40168 3.31493 6.8497 3.31493C6.29772 3.31493 5.76835 3.5342 5.37804 3.92451C4.98773 4.31482 4.76846 4.84419 4.76846 5.39617C4.76846 5.94815 4.98773 6.47752 5.37804 6.86783ZM8.74031 7.28679C8.23889 7.78821 7.55882 8.0699 6.8497 8.0699C6.14058 8.0699 5.46051 7.78821 4.95908 7.28679C4.45766 6.78536 4.17596 6.10529 4.17596 5.39617C4.17596 4.68705 4.45766 4.00698 4.95908 3.50556C5.46051 3.00413 6.14058 2.72244 6.8497 2.72244C7.55882 2.72244 8.23889 3.00413 8.74031 3.50556C9.24174 4.00698 9.52343 4.68705 9.52343 5.39617C9.52343 6.10529 9.24174 6.78536 8.74031 7.28679ZM2.78722 3.81118C2.78722 3.88975 2.75601 3.9651 2.70045 4.02066C2.6449 4.07622 2.56954 4.10743 2.49097 4.10743C2.4124 4.10743 2.33705 4.07622 2.2815 4.02066C2.22594 3.9651 2.19473 3.88975 2.19473 3.81118C2.19473 3.73261 2.22594 3.65726 2.2815 3.6017C2.33705 3.54614 2.4124 3.51493 2.49097 3.51493C2.56954 3.51493 2.6449 3.54614 2.70045 3.6017C2.75601 3.65726 2.78722 3.73261 2.78722 3.81118Z" fill="#232323" stroke="#7B22D3" stroke-width="0.2"/>
</svg>
